<svg xmlns="http://www.w3.org/2000/svg" viewBox="0 0 512 512">
  <defs>
    <linearGradient id="grad512" x1="0%" y1="0%" x2="100%" y2="100%">
      <stop offset="0%" style="stop-color:#2563eb;stop-opacity:1" />
      <stop offset="100%" style="stop-color:#1d4ed8;stop-opacity:1" />
    </linearGradient>
  </defs>
  <rect width="512" height="512" rx="128" fill="url(#grad512)"/>
  <path d="M256 96c-70.7 0-128 57.3-128 128v32c0 17.7 14.3 32 32 32h192c17.7 0 32-14.3 32-32v-32c0-70.7-57.3-128-128-128zm0 48c44.2 0 80 35.8 80 80v16H176v-16c0-44.2 35.8-80 80-80z" fill="white"/>
  <rect x="128" y="288" width="256" height="128" rx="16" fill="white"/>
  <circle cx="256" cy="352" r="24" fill="#2563eb"/>
</svg>
