<svg xmlns="http://www.w3.org/2000/svg" viewBox="0 0 64 64">
  <defs>
    <linearGradient id="grad64" x1="0%" y1="0%" x2="100%" y2="100%">
      <stop offset="0%" style="stop-color:#2563eb;stop-opacity:1" />
      <stop offset="100%" style="stop-color:#1d4ed8;stop-opacity:1" />
    </linearGradient>
  </defs>
  <rect width="64" height="64" rx="16" fill="url(#grad64)"/>
  <path d="M32 12c-8.8 0-16 7.2-16 16v4c0 2.2 1.8 4 4 4h24c2.2 0 4-1.8 4-4v-4c0-8.8-7.2-16-16-16zm0 6c5.5 0 10 4.5 10 10v2H22v-2c0-5.5 4.5-10 10-10z" fill="white"/>
  <rect x="16" y="36" width="32" height="16" rx="2" fill="white"/>
  <circle cx="32" cy="44" r="3" fill="#2563eb"/>
</svg>
